<svg version="1.1" id="dots" xmlns="http://www.w3.org/2000/svg" xmlns:xlink="http://www.w3.org/1999/xlink" x="0px" y="0px"
	 viewBox="0 0 841.65 31.76" style="enable-background:new 0 0 841.65 31.76;" xml:space="preserve">
<style type="text/css">
	.st0{fill:#FFFFFF;}
</style>
<g>
	<g>
		<path class="st0" d="M2.86,28.7c0-0.56-0.46-1.02-1.02-1.02c-0.57,0-1.02,0.46-1.02,1.02c0,0.56,0.45,1.02,1.02,1.02
			C2.41,29.72,2.86,29.26,2.86,28.7"/>
		<path class="st0" d="M2.86,19.58c0-0.56-0.46-1.02-1.02-1.02c-0.57,0-1.02,0.46-1.02,1.02c0,0.56,0.45,1.02,1.02,1.02
			C2.41,20.6,2.86,20.14,2.86,19.58"/>
		<path class="st0" d="M2.86,10.46c0-0.56-0.46-1.02-1.02-1.02c-0.57,0-1.02,0.46-1.02,1.02c0,0.57,0.45,1.02,1.02,1.02
			C2.41,11.48,2.86,11.03,2.86,10.46"/>
		<path class="st0" d="M2.86,1.34c0-0.57-0.46-1.02-1.02-1.02c-0.57,0-1.02,0.45-1.02,1.02c0,0.56,0.45,1.02,1.02,1.02
			C2.41,2.36,2.86,1.91,2.86,1.34"/>
		<path class="st0" d="M11.98,28.7c0-0.56-0.45-1.02-1.02-1.02c-0.56,0-1.02,0.46-1.02,1.02c0,0.56,0.46,1.02,1.02,1.02
			C11.53,29.72,11.98,29.26,11.98,28.7"/>
		<path class="st0" d="M22.18,28.7c0-0.56-0.46-1.02-1.02-1.02c-0.57,0-1.02,0.46-1.02,1.02c0,0.56,0.45,1.02,1.02,1.02
			C21.73,29.72,22.18,29.26,22.18,28.7"/>
		<path class="st0" d="M31.3,28.7c0-0.56-0.45-1.02-1.02-1.02c-0.57,0-1.02,0.46-1.02,1.02c0,0.56,0.45,1.02,1.02,1.02
			C30.85,29.72,31.3,29.26,31.3,28.7"/>
		<path class="st0" d="M11.98,19.58c0-0.56-0.45-1.02-1.02-1.02c-0.56,0-1.02,0.46-1.02,1.02c0,0.56,0.46,1.02,1.02,1.02
			C11.53,20.6,11.98,20.14,11.98,19.58"/>
		<path class="st0" d="M22.18,19.58c0-0.56-0.46-1.02-1.02-1.02c-0.57,0-1.02,0.46-1.02,1.02c0,0.56,0.45,1.02,1.02,1.02
			C21.73,20.6,22.18,20.14,22.18,19.58"/>
		<path class="st0" d="M31.3,19.58c0-0.56-0.45-1.02-1.02-1.02c-0.57,0-1.02,0.46-1.02,1.02c0,0.56,0.45,1.02,1.02,1.02
			C30.85,20.6,31.3,20.14,31.3,19.58"/>
		<path class="st0" d="M11.98,10.46c0-0.56-0.45-1.02-1.02-1.02c-0.56,0-1.02,0.46-1.02,1.02c0,0.57,0.46,1.02,1.02,1.02
			C11.53,11.48,11.98,11.03,11.98,10.46"/>
		<path class="st0" d="M22.18,10.46c0-0.56-0.46-1.02-1.02-1.02c-0.57,0-1.02,0.46-1.02,1.02c0,0.57,0.45,1.02,1.02,1.02
			C21.73,11.48,22.18,11.03,22.18,10.46"/>
		<path class="st0" d="M31.3,10.46c0-0.56-0.45-1.02-1.02-1.02c-0.57,0-1.02,0.46-1.02,1.02c0,0.57,0.45,1.02,1.02,1.02
			C30.85,11.48,31.3,11.03,31.3,10.46"/>
		<path class="st0" d="M11.98,1.34c0-0.57-0.45-1.02-1.02-1.02c-0.56,0-1.02,0.45-1.02,1.02c0,0.56,0.46,1.02,1.02,1.02
			C11.53,2.36,11.98,1.91,11.98,1.34"/>
		<path class="st0" d="M22.18,1.34c0-0.57-0.46-1.02-1.02-1.02c-0.57,0-1.02,0.45-1.02,1.02c0,0.56,0.45,1.02,1.02,1.02
			C21.73,2.36,22.18,1.91,22.18,1.34"/>
		<path class="st0" d="M40.42,28.7c0-0.56-0.46-1.02-1.02-1.02c-0.57,0-1.02,0.46-1.02,1.02c0,0.56,0.45,1.02,1.02,1.02
			C39.96,29.72,40.42,29.26,40.42,28.7"/>
		<path class="st0" d="M49.54,28.7c0-0.56-0.46-1.02-1.02-1.02s-1.02,0.46-1.02,1.02c0,0.56,0.46,1.02,1.02,1.02
			S49.54,29.26,49.54,28.7"/>
		<path class="st0" d="M58.65,28.7c0-0.56-0.45-1.02-1.02-1.02c-0.56,0-1.02,0.46-1.02,1.02c0,0.56,0.46,1.02,1.02,1.02
			C58.2,29.72,58.65,29.26,58.65,28.7"/>
		<path class="st0" d="M67.77,28.7c0-0.56-0.46-1.02-1.02-1.02c-0.57,0-1.02,0.46-1.02,1.02c0,0.56,0.45,1.02,1.02,1.02
			C67.32,29.72,67.77,29.26,67.77,28.7"/>
		<path class="st0" d="M76.89,28.7c0-0.56-0.45-1.02-1.02-1.02c-0.56,0-1.02,0.46-1.02,1.02c0,0.56,0.46,1.02,1.02,1.02
			C76.44,29.72,76.89,29.26,76.89,28.7"/>
		<path class="st0" d="M86.01,28.7c0-0.56-0.46-1.02-1.02-1.02c-0.57,0-1.02,0.46-1.02,1.02c0,0.56,0.45,1.02,1.02,1.02
			C85.55,29.72,86.01,29.26,86.01,28.7"/>
		<path class="st0" d="M95.13,28.7c0-0.56-0.45-1.02-1.02-1.02c-0.57,0-1.02,0.46-1.02,1.02c0,0.56,0.45,1.02,1.02,1.02
			C94.67,29.72,95.13,29.26,95.13,28.7"/>
		<path class="st0" d="M104.24,28.7c0-0.56-0.45-1.02-1.02-1.02c-0.56,0-1.02,0.46-1.02,1.02c0,0.56,0.46,1.02,1.02,1.02
			C103.79,29.72,104.24,29.26,104.24,28.7"/>
		<path class="st0" d="M113.36,28.7c0-0.56-0.46-1.02-1.02-1.02s-1.02,0.46-1.02,1.02c0,0.56,0.46,1.02,1.02,1.02
			S113.36,29.26,113.36,28.7"/>
		<path class="st0" d="M122.48,28.7c0-0.56-0.45-1.02-1.02-1.02c-0.56,0-1.02,0.46-1.02,1.02c0,0.56,0.46,1.02,1.02,1.02
			C122.03,29.72,122.48,29.26,122.48,28.7"/>
		<path class="st0" d="M131.6,28.7c0-0.56-0.46-1.02-1.02-1.02c-0.57,0-1.02,0.46-1.02,1.02c0,0.56,0.45,1.02,1.02,1.02
			C131.14,29.72,131.6,29.26,131.6,28.7"/>
		<path class="st0" d="M140.72,28.7c0-0.56-0.45-1.02-1.02-1.02c-0.57,0-1.02,0.46-1.02,1.02c0,0.56,0.45,1.02,1.02,1.02
			C140.26,29.72,140.72,29.26,140.72,28.7"/>
		<path class="st0" d="M149.83,28.7c0-0.56-0.46-1.02-1.02-1.02c-0.57,0-1.02,0.46-1.02,1.02c0,0.56,0.45,1.02,1.02,1.02
			C149.38,29.72,149.83,29.26,149.83,28.7"/>
		<path class="st0" d="M158.95,28.7c0-0.56-0.46-1.02-1.02-1.02c-0.57,0-1.02,0.46-1.02,1.02c0,0.56,0.45,1.02,1.02,1.02
			C158.5,29.72,158.95,29.26,158.95,28.7"/>
		<path class="st0" d="M168.07,28.7c0-0.56-0.45-1.02-1.02-1.02c-0.56,0-1.02,0.46-1.02,1.02c0,0.56,0.46,1.02,1.02,1.02
			C167.62,29.72,168.07,29.26,168.07,28.7"/>
		<path class="st0" d="M177.19,28.7c0-0.56-0.46-1.02-1.02-1.02c-0.57,0-1.02,0.46-1.02,1.02c0,0.56,0.45,1.02,1.02,1.02
			C176.73,29.72,177.19,29.26,177.19,28.7"/>
		<path class="st0" d="M186.31,28.7c0-0.56-0.45-1.02-1.02-1.02s-1.02,0.46-1.02,1.02c0,0.56,0.45,1.02,1.02,1.02
			S186.31,29.26,186.31,28.7"/>
		<path class="st0" d="M195.42,28.7c0-0.56-0.46-1.02-1.02-1.02c-0.57,0-1.02,0.46-1.02,1.02c0,0.56,0.45,1.02,1.02,1.02
			C194.97,29.72,195.42,29.26,195.42,28.7"/>
		<path class="st0" d="M204.54,28.7c0-0.56-0.46-1.02-1.02-1.02c-0.57,0-1.02,0.46-1.02,1.02c0,0.56,0.45,1.02,1.02,1.02
			C204.08,29.72,204.54,29.26,204.54,28.7"/>
		<path class="st0" d="M213.66,28.7c0-0.56-0.45-1.02-1.02-1.02c-0.56,0-1.02,0.46-1.02,1.02c0,0.56,0.46,1.02,1.02,1.02
			C213.21,29.72,213.66,29.26,213.66,28.7"/>
		<path class="st0" d="M222.78,28.7c0-0.56-0.46-1.02-1.02-1.02s-1.02,0.46-1.02,1.02c0,0.56,0.46,1.02,1.02,1.02
			S222.78,29.26,222.78,28.7"/>
		<path class="st0" d="M231.9,28.7c0-0.56-0.45-1.02-1.02-1.02c-0.57,0-1.02,0.46-1.02,1.02c0,0.56,0.45,1.02,1.02,1.02
			C231.44,29.72,231.9,29.26,231.9,28.7"/>
		<path class="st0" d="M241.01,28.7c0-0.56-0.45-1.02-1.02-1.02c-0.56,0-1.02,0.46-1.02,1.02c0,0.56,0.46,1.02,1.02,1.02
			C240.56,29.72,241.01,29.26,241.01,28.7"/>
		<path class="st0" d="M250.13,28.7c0-0.56-0.46-1.02-1.02-1.02s-1.02,0.46-1.02,1.02c0,0.56,0.46,1.02,1.02,1.02
			S250.13,29.26,250.13,28.7"/>
		<path class="st0" d="M259.25,28.7c0-0.56-0.45-1.02-1.02-1.02c-0.56,0-1.02,0.46-1.02,1.02c0,0.56,0.46,1.02,1.02,1.02
			C258.8,29.72,259.25,29.26,259.25,28.7"/>
		<path class="st0" d="M268.37,28.7c0-0.56-0.46-1.02-1.02-1.02c-0.57,0-1.02,0.46-1.02,1.02c0,0.56,0.45,1.02,1.02,1.02
			C267.91,29.72,268.37,29.26,268.37,28.7"/>
		<path class="st0" d="M277.49,28.7c0-0.56-0.45-1.02-1.02-1.02s-1.02,0.46-1.02,1.02c0,0.56,0.45,1.02,1.02,1.02
			S277.49,29.26,277.49,28.7"/>
		<path class="st0" d="M286.6,28.7c0-0.56-0.45-1.02-1.02-1.02c-0.56,0-1.02,0.46-1.02,1.02c0,0.56,0.46,1.02,1.02,1.02
			C286.15,29.72,286.6,29.26,286.6,28.7"/>
		<path class="st0" d="M295.72,28.7c0-0.56-0.46-1.02-1.02-1.02c-0.57,0-1.02,0.46-1.02,1.02c0,0.56,0.45,1.02,1.02,1.02
			C295.26,29.72,295.72,29.26,295.72,28.7"/>
		<path class="st0" d="M304.84,28.7c0-0.56-0.45-1.02-1.02-1.02c-0.56,0-1.02,0.46-1.02,1.02c0,0.56,0.46,1.02,1.02,1.02
			C304.39,29.72,304.84,29.26,304.84,28.7"/>
		<path class="st0" d="M313.96,28.7c0-0.56-0.46-1.02-1.02-1.02s-1.02,0.46-1.02,1.02c0,0.56,0.46,1.02,1.02,1.02
			S313.96,29.26,313.96,28.7"/>
		<path class="st0" d="M323.08,28.7c0-0.56-0.45-1.02-1.02-1.02c-0.57,0-1.02,0.46-1.02,1.02c0,0.56,0.45,1.02,1.02,1.02
			C322.62,29.72,323.08,29.26,323.08,28.7"/>
		<path class="st0" d="M40.42,19.58c0-0.56-0.46-1.02-1.02-1.02c-0.57,0-1.02,0.46-1.02,1.02c0,0.56,0.45,1.02,1.02,1.02
			C39.96,20.6,40.42,20.14,40.42,19.58"/>
		<path class="st0" d="M49.54,19.58c0-0.56-0.46-1.02-1.02-1.02s-1.02,0.46-1.02,1.02c0,0.56,0.46,1.02,1.02,1.02
			S49.54,20.14,49.54,19.58"/>
		<path class="st0" d="M58.65,19.58c0-0.56-0.45-1.02-1.02-1.02c-0.56,0-1.02,0.46-1.02,1.02c0,0.56,0.46,1.02,1.02,1.02
			C58.2,20.6,58.65,20.14,58.65,19.58"/>
		<path class="st0" d="M67.77,19.58c0-0.56-0.46-1.02-1.02-1.02c-0.57,0-1.02,0.46-1.02,1.02c0,0.56,0.45,1.02,1.02,1.02
			C67.32,20.6,67.77,20.14,67.77,19.58"/>
		<path class="st0" d="M76.89,19.58c0-0.56-0.45-1.02-1.02-1.02c-0.56,0-1.02,0.46-1.02,1.02c0,0.56,0.46,1.02,1.02,1.02
			C76.44,20.6,76.89,20.14,76.89,19.58"/>
		<path class="st0" d="M86.01,19.58c0-0.56-0.46-1.02-1.02-1.02c-0.57,0-1.02,0.46-1.02,1.02c0,0.56,0.45,1.02,1.02,1.02
			C85.55,20.6,86.01,20.14,86.01,19.58"/>
		<path class="st0" d="M95.13,19.58c0-0.56-0.45-1.02-1.02-1.02c-0.57,0-1.02,0.46-1.02,1.02c0,0.56,0.45,1.02,1.02,1.02
			C94.67,20.6,95.13,20.14,95.13,19.58"/>
		<path class="st0" d="M104.24,19.58c0-0.56-0.45-1.02-1.02-1.02c-0.56,0-1.02,0.46-1.02,1.02c0,0.56,0.46,1.02,1.02,1.02
			C103.79,20.6,104.24,20.14,104.24,19.58"/>
		<path class="st0" d="M113.36,19.58c0-0.56-0.46-1.02-1.02-1.02s-1.02,0.46-1.02,1.02c0,0.56,0.46,1.02,1.02,1.02
			S113.36,20.14,113.36,19.58"/>
		<path class="st0" d="M131.6,19.58c0-0.56-0.46-1.02-1.02-1.02c-0.57,0-1.02,0.46-1.02,1.02c0,0.56,0.45,1.02,1.02,1.02
			C131.14,20.6,131.6,20.14,131.6,19.58"/>
		<path class="st0" d="M140.72,19.58c0-0.56-0.45-1.02-1.02-1.02c-0.57,0-1.02,0.46-1.02,1.02c0,0.56,0.45,1.02,1.02,1.02
			C140.26,20.6,140.72,20.14,140.72,19.58"/>
		<path class="st0" d="M149.83,19.58c0-0.56-0.46-1.02-1.02-1.02c-0.57,0-1.02,0.46-1.02,1.02c0,0.56,0.45,1.02,1.02,1.02
			C149.38,20.6,149.83,20.14,149.83,19.58"/>
		<path class="st0" d="M158.95,19.58c0-0.56-0.46-1.02-1.02-1.02c-0.57,0-1.02,0.46-1.02,1.02c0,0.56,0.45,1.02,1.02,1.02
			C158.5,20.6,158.95,20.14,158.95,19.58"/>
		<path class="st0" d="M168.07,19.58c0-0.56-0.45-1.02-1.02-1.02c-0.56,0-1.02,0.46-1.02,1.02c0,0.56,0.46,1.02,1.02,1.02
			C167.62,20.6,168.07,20.14,168.07,19.58"/>
		<path class="st0" d="M177.19,19.58c0-0.56-0.46-1.02-1.02-1.02c-0.57,0-1.02,0.46-1.02,1.02c0,0.56,0.45,1.02,1.02,1.02
			C176.73,20.6,177.19,20.14,177.19,19.58"/>
		<path class="st0" d="M186.31,19.58c0-0.56-0.45-1.02-1.02-1.02s-1.02,0.46-1.02,1.02c0,0.56,0.45,1.02,1.02,1.02
			S186.31,20.14,186.31,19.58"/>
		<path class="st0" d="M195.42,19.58c0-0.56-0.46-1.02-1.02-1.02c-0.57,0-1.02,0.46-1.02,1.02c0,0.56,0.45,1.02,1.02,1.02
			C194.97,20.6,195.42,20.14,195.42,19.58"/>
		<path class="st0" d="M204.54,19.58c0-0.56-0.46-1.02-1.02-1.02c-0.57,0-1.02,0.46-1.02,1.02c0,0.56,0.45,1.02,1.02,1.02
			C204.08,20.6,204.54,20.14,204.54,19.58"/>
		<path class="st0" d="M213.66,19.58c0-0.56-0.45-1.02-1.02-1.02c-0.56,0-1.02,0.46-1.02,1.02c0,0.56,0.46,1.02,1.02,1.02
			C213.21,20.6,213.66,20.14,213.66,19.58"/>
		<path class="st0" d="M222.78,19.58c0-0.56-0.46-1.02-1.02-1.02s-1.02,0.46-1.02,1.02c0,0.56,0.46,1.02,1.02,1.02
			S222.78,20.14,222.78,19.58"/>
		<path class="st0" d="M231.9,19.58c0-0.56-0.45-1.02-1.02-1.02c-0.57,0-1.02,0.46-1.02,1.02c0,0.56,0.45,1.02,1.02,1.02
			C231.44,20.6,231.9,20.14,231.9,19.58"/>
		<path class="st0" d="M241.01,19.58c0-0.56-0.45-1.02-1.02-1.02c-0.56,0-1.02,0.46-1.02,1.02c0,0.56,0.46,1.02,1.02,1.02
			C240.56,20.6,241.01,20.14,241.01,19.58"/>
		<path class="st0" d="M250.13,19.58c0-0.56-0.46-1.02-1.02-1.02s-1.02,0.46-1.02,1.02c0,0.56,0.46,1.02,1.02,1.02
			S250.13,20.14,250.13,19.58"/>
		<path class="st0" d="M259.25,19.58c0-0.56-0.45-1.02-1.02-1.02c-0.56,0-1.02,0.46-1.02,1.02c0,0.56,0.46,1.02,1.02,1.02
			C258.8,20.6,259.25,20.14,259.25,19.58"/>
		<path class="st0" d="M268.37,19.58c0-0.56-0.46-1.02-1.02-1.02c-0.57,0-1.02,0.46-1.02,1.02c0,0.56,0.45,1.02,1.02,1.02
			C267.91,20.6,268.37,20.14,268.37,19.58"/>
		<path class="st0" d="M277.49,19.58c0-0.56-0.45-1.02-1.02-1.02s-1.02,0.46-1.02,1.02c0,0.56,0.45,1.02,1.02,1.02
			S277.49,20.14,277.49,19.58"/>
		<path class="st0" d="M286.6,19.58c0-0.56-0.45-1.02-1.02-1.02c-0.56,0-1.02,0.46-1.02,1.02c0,0.56,0.46,1.02,1.02,1.02
			C286.15,20.6,286.6,20.14,286.6,19.58"/>
		<path class="st0" d="M295.72,19.58c0-0.56-0.46-1.02-1.02-1.02c-0.57,0-1.02,0.46-1.02,1.02c0,0.56,0.45,1.02,1.02,1.02
			C295.26,20.6,295.72,20.14,295.72,19.58"/>
		<path class="st0" d="M304.84,19.58c0-0.56-0.45-1.02-1.02-1.02c-0.56,0-1.02,0.46-1.02,1.02c0,0.56,0.46,1.02,1.02,1.02
			C304.39,20.6,304.84,20.14,304.84,19.58"/>
		<path class="st0" d="M313.96,19.58c0-0.56-0.46-1.02-1.02-1.02s-1.02,0.46-1.02,1.02c0,0.56,0.46,1.02,1.02,1.02
			S313.96,20.14,313.96,19.58"/>
		<path class="st0" d="M323.08,19.58c0-0.56-0.45-1.02-1.02-1.02c-0.57,0-1.02,0.46-1.02,1.02c0,0.56,0.45,1.02,1.02,1.02
			C322.62,20.6,323.08,20.14,323.08,19.58"/>
		<path class="st0" d="M49.54,10.46c0-0.56-0.46-1.02-1.02-1.02S47.5,9.9,47.5,10.46c0,0.57,0.46,1.02,1.02,1.02
			S49.54,11.03,49.54,10.46"/>
		<path class="st0" d="M58.65,10.46c0-0.56-0.45-1.02-1.02-1.02c-0.56,0-1.02,0.46-1.02,1.02c0,0.57,0.46,1.02,1.02,1.02
			C58.2,11.48,58.65,11.03,58.65,10.46"/>
		<path class="st0" d="M67.77,10.46c0-0.56-0.46-1.02-1.02-1.02c-0.57,0-1.02,0.46-1.02,1.02c0,0.57,0.45,1.02,1.02,1.02
			C67.32,11.48,67.77,11.03,67.77,10.46"/>
		<path class="st0" d="M76.89,10.46c0-0.56-0.45-1.02-1.02-1.02c-0.56,0-1.02,0.46-1.02,1.02c0,0.57,0.46,1.02,1.02,1.02
			C76.44,11.48,76.89,11.03,76.89,10.46"/>
		<path class="st0" d="M86.01,10.46c0-0.56-0.46-1.02-1.02-1.02c-0.57,0-1.02,0.46-1.02,1.02c0,0.57,0.45,1.02,1.02,1.02
			C85.55,11.48,86.01,11.03,86.01,10.46"/>
		<path class="st0" d="M95.13,10.46c0-0.56-0.45-1.02-1.02-1.02c-0.57,0-1.02,0.46-1.02,1.02c0,0.57,0.45,1.02,1.02,1.02
			C94.67,11.48,95.13,11.03,95.13,10.46"/>
		<path class="st0" d="M104.24,10.46c0-0.56-0.45-1.02-1.02-1.02c-0.56,0-1.02,0.46-1.02,1.02c0,0.57,0.46,1.02,1.02,1.02
			C103.79,11.48,104.24,11.03,104.24,10.46"/>
		<path class="st0" d="M113.36,10.46c0-0.56-0.46-1.02-1.02-1.02s-1.02,0.46-1.02,1.02c0,0.57,0.46,1.02,1.02,1.02
			S113.36,11.03,113.36,10.46"/>
		<path class="st0" d="M131.6,10.46c0-0.56-0.46-1.02-1.02-1.02c-0.57,0-1.02,0.46-1.02,1.02c0,0.57,0.45,1.02,1.02,1.02
			C131.14,11.48,131.6,11.03,131.6,10.46"/>
		<path class="st0" d="M140.72,10.46c0-0.56-0.45-1.02-1.02-1.02c-0.57,0-1.02,0.46-1.02,1.02c0,0.57,0.45,1.02,1.02,1.02
			C140.26,11.48,140.72,11.03,140.72,10.46"/>
		<path class="st0" d="M149.83,10.46c0-0.56-0.46-1.02-1.02-1.02c-0.57,0-1.02,0.46-1.02,1.02c0,0.57,0.45,1.02,1.02,1.02
			C149.38,11.48,149.83,11.03,149.83,10.46"/>
		<path class="st0" d="M158.95,10.46c0-0.56-0.46-1.02-1.02-1.02c-0.57,0-1.02,0.46-1.02,1.02c0,0.57,0.45,1.02,1.02,1.02
			C158.5,11.48,158.95,11.03,158.95,10.46"/>
		<path class="st0" d="M168.07,10.46c0-0.56-0.45-1.02-1.02-1.02c-0.56,0-1.02,0.46-1.02,1.02c0,0.57,0.46,1.02,1.02,1.02
			C167.62,11.48,168.07,11.03,168.07,10.46"/>
		<path class="st0" d="M177.19,10.46c0-0.56-0.46-1.02-1.02-1.02c-0.57,0-1.02,0.46-1.02,1.02c0,0.57,0.45,1.02,1.02,1.02
			C176.73,11.48,177.19,11.03,177.19,10.46"/>
		<path class="st0" d="M186.31,10.46c0-0.56-0.45-1.02-1.02-1.02s-1.02,0.46-1.02,1.02c0,0.57,0.45,1.02,1.02,1.02
			S186.31,11.03,186.31,10.46"/>
		<path class="st0" d="M195.42,10.46c0-0.56-0.46-1.02-1.02-1.02c-0.57,0-1.02,0.46-1.02,1.02c0,0.57,0.45,1.02,1.02,1.02
			C194.97,11.48,195.42,11.03,195.42,10.46"/>
		<path class="st0" d="M213.66,10.46c0-0.56-0.45-1.02-1.02-1.02c-0.56,0-1.02,0.46-1.02,1.02c0,0.57,0.46,1.02,1.02,1.02
			C213.21,11.48,213.66,11.03,213.66,10.46"/>
		<path class="st0" d="M222.78,10.46c0-0.56-0.46-1.02-1.02-1.02s-1.02,0.46-1.02,1.02c0,0.57,0.46,1.02,1.02,1.02
			S222.78,11.03,222.78,10.46"/>
		<path class="st0" d="M231.9,10.46c0-0.56-0.45-1.02-1.02-1.02c-0.57,0-1.02,0.46-1.02,1.02c0,0.57,0.45,1.02,1.02,1.02
			C231.44,11.48,231.9,11.03,231.9,10.46"/>
		<path class="st0" d="M241.01,10.46c0-0.56-0.45-1.02-1.02-1.02c-0.56,0-1.02,0.46-1.02,1.02c0,0.57,0.46,1.02,1.02,1.02
			C240.56,11.48,241.01,11.03,241.01,10.46"/>
		<path class="st0" d="M259.25,10.46c0-0.56-0.45-1.02-1.02-1.02c-0.56,0-1.02,0.46-1.02,1.02c0,0.57,0.46,1.02,1.02,1.02
			C258.8,11.48,259.25,11.03,259.25,10.46"/>
		<path class="st0" d="M268.37,10.46c0-0.56-0.46-1.02-1.02-1.02c-0.57,0-1.02,0.46-1.02,1.02c0,0.57,0.45,1.02,1.02,1.02
			C267.91,11.48,268.37,11.03,268.37,10.46"/>
		<path class="st0" d="M277.49,10.46c0-0.56-0.45-1.02-1.02-1.02s-1.02,0.46-1.02,1.02c0,0.57,0.45,1.02,1.02,1.02
			S277.49,11.03,277.49,10.46"/>
		<path class="st0" d="M286.6,10.46c0-0.56-0.45-1.02-1.02-1.02c-0.56,0-1.02,0.46-1.02,1.02c0,0.57,0.46,1.02,1.02,1.02
			C286.15,11.48,286.6,11.03,286.6,10.46"/>
		<path class="st0" d="M295.72,10.46c0-0.56-0.46-1.02-1.02-1.02c-0.57,0-1.02,0.46-1.02,1.02c0,0.57,0.45,1.02,1.02,1.02
			C295.26,11.48,295.72,11.03,295.72,10.46"/>
		<path class="st0" d="M304.84,10.46c0-0.56-0.45-1.02-1.02-1.02c-0.56,0-1.02,0.46-1.02,1.02c0,0.57,0.46,1.02,1.02,1.02
			C304.39,11.48,304.84,11.03,304.84,10.46"/>
		<path class="st0" d="M323.08,10.46c0-0.56-0.45-1.02-1.02-1.02c-0.57,0-1.02,0.46-1.02,1.02c0,0.57,0.45,1.02,1.02,1.02
			C322.62,11.48,323.08,11.03,323.08,10.46"/>
		<path class="st0" d="M49.54,1.34c0-0.57-0.46-1.02-1.02-1.02S47.5,0.78,47.5,1.34c0,0.56,0.46,1.02,1.02,1.02
			S49.54,1.91,49.54,1.34"/>
		<path class="st0" d="M67.77,1.34c0-0.57-0.46-1.02-1.02-1.02c-0.57,0-1.02,0.45-1.02,1.02c0,0.56,0.45,1.02,1.02,1.02
			C67.32,2.36,67.77,1.91,67.77,1.34"/>
		<path class="st0" d="M104.24,1.34c0-0.57-0.45-1.02-1.02-1.02c-0.56,0-1.02,0.45-1.02,1.02c0,0.56,0.46,1.02,1.02,1.02
			C103.79,2.36,104.24,1.91,104.24,1.34"/>
		<path class="st0" d="M131.6,1.34c0-0.57-0.46-1.02-1.02-1.02c-0.57,0-1.02,0.45-1.02,1.02c0,0.56,0.45,1.02,1.02,1.02
			C131.14,2.36,131.6,1.91,131.6,1.34"/>
		<path class="st0" d="M158.95,1.34c0-0.57-0.46-1.02-1.02-1.02c-0.57,0-1.02,0.45-1.02,1.02c0,0.56,0.45,1.02,1.02,1.02
			C158.5,2.36,158.95,1.91,158.95,1.34"/>
		<path class="st0" d="M177.19,1.34c0-0.57-0.46-1.02-1.02-1.02c-0.57,0-1.02,0.45-1.02,1.02c0,0.56,0.45,1.02,1.02,1.02
			C176.73,2.36,177.19,1.91,177.19,1.34"/>
		<path class="st0" d="M186.31,1.34c0-0.57-0.45-1.02-1.02-1.02s-1.02,0.45-1.02,1.02c0,0.56,0.45,1.02,1.02,1.02
			S186.31,1.91,186.31,1.34"/>
		<path class="st0" d="M195.42,1.34c0-0.57-0.46-1.02-1.02-1.02c-0.57,0-1.02,0.45-1.02,1.02c0,0.56,0.45,1.02,1.02,1.02
			C194.97,2.36,195.42,1.91,195.42,1.34"/>
		<path class="st0" d="M213.66,1.34c0-0.57-0.45-1.02-1.02-1.02c-0.56,0-1.02,0.45-1.02,1.02c0,0.56,0.46,1.02,1.02,1.02
			C213.21,2.36,213.66,1.91,213.66,1.34"/>
		<path class="st0" d="M231.9,1.34c0-0.57-0.45-1.02-1.02-1.02c-0.57,0-1.02,0.45-1.02,1.02c0,0.56,0.45,1.02,1.02,1.02
			C231.44,2.36,231.9,1.91,231.9,1.34"/>
		<path class="st0" d="M259.25,1.34c0-0.57-0.45-1.02-1.02-1.02c-0.56,0-1.02,0.45-1.02,1.02c0,0.56,0.46,1.02,1.02,1.02
			C258.8,2.36,259.25,1.91,259.25,1.34"/>
		<path class="st0" d="M277.49,1.34c0-0.57-0.45-1.02-1.02-1.02s-1.02,0.45-1.02,1.02c0,0.56,0.45,1.02,1.02,1.02
			S277.49,1.91,277.49,1.34"/>
		<path class="st0" d="M286.6,1.34c0-0.57-0.45-1.02-1.02-1.02c-0.56,0-1.02,0.45-1.02,1.02c0,0.56,0.46,1.02,1.02,1.02
			C286.15,2.36,286.6,1.91,286.6,1.34"/>
		<path class="st0" d="M295.72,1.34c0-0.57-0.46-1.02-1.02-1.02c-0.57,0-1.02,0.45-1.02,1.02c0,0.56,0.45,1.02,1.02,1.02
			C295.26,2.36,295.72,1.91,295.72,1.34"/>
		<path class="st0" d="M323.08,1.34c0-0.57-0.45-1.02-1.02-1.02c-0.57,0-1.02,0.45-1.02,1.02c0,0.56,0.45,1.02,1.02,1.02
			C322.62,2.36,323.08,1.91,323.08,1.34"/>
	</g>
	<g>
		<path class="st0" d="M521.44,28.7c0-0.56-0.46-1.02-1.02-1.02c-0.57,0-1.02,0.46-1.02,1.02c0,0.56,0.45,1.02,1.02,1.02
			C520.98,29.72,521.44,29.26,521.44,28.7"/>
		<path class="st0" d="M521.44,19.58c0-0.56-0.46-1.02-1.02-1.02c-0.57,0-1.02,0.46-1.02,1.02c0,0.56,0.45,1.02,1.02,1.02
			C520.98,20.6,521.44,20.14,521.44,19.58"/>
		<path class="st0" d="M521.44,10.46c0-0.56-0.46-1.02-1.02-1.02c-0.57,0-1.02,0.46-1.02,1.02c0,0.57,0.45,1.02,1.02,1.02
			C520.98,11.48,521.44,11.03,521.44,10.46"/>
		<path class="st0" d="M521.44,1.34c0-0.57-0.46-1.02-1.02-1.02c-0.57,0-1.02,0.45-1.02,1.02c0,0.56,0.45,1.02,1.02,1.02
			C520.98,2.36,521.44,1.91,521.44,1.34"/>
		<path class="st0" d="M530.56,28.7c0-0.56-0.45-1.02-1.02-1.02c-0.56,0-1.02,0.46-1.02,1.02c0,0.56,0.46,1.02,1.02,1.02
			C530.1,29.72,530.56,29.26,530.56,28.7"/>
		<path class="st0" d="M540.76,28.7c0-0.56-0.46-1.02-1.02-1.02c-0.57,0-1.02,0.46-1.02,1.02c0,0.56,0.45,1.02,1.02,1.02
			C540.3,29.72,540.76,29.26,540.76,28.7"/>
		<path class="st0" d="M549.87,28.7c0-0.56-0.45-1.02-1.02-1.02s-1.02,0.46-1.02,1.02c0,0.56,0.45,1.02,1.02,1.02
			S549.87,29.26,549.87,28.7"/>
		<path class="st0" d="M530.56,19.58c0-0.56-0.45-1.02-1.02-1.02c-0.56,0-1.02,0.46-1.02,1.02c0,0.56,0.46,1.02,1.02,1.02
			C530.1,20.6,530.56,20.14,530.56,19.58"/>
		<path class="st0" d="M540.76,19.58c0-0.56-0.46-1.02-1.02-1.02c-0.57,0-1.02,0.46-1.02,1.02c0,0.56,0.45,1.02,1.02,1.02
			C540.3,20.6,540.76,20.14,540.76,19.58"/>
		<path class="st0" d="M549.87,19.58c0-0.56-0.45-1.02-1.02-1.02s-1.02,0.46-1.02,1.02c0,0.56,0.45,1.02,1.02,1.02
			S549.87,20.14,549.87,19.58"/>
		<path class="st0" d="M530.56,10.46c0-0.56-0.45-1.02-1.02-1.02c-0.56,0-1.02,0.46-1.02,1.02c0,0.57,0.46,1.02,1.02,1.02
			C530.1,11.48,530.56,11.03,530.56,10.46"/>
		<path class="st0" d="M540.76,10.46c0-0.56-0.46-1.02-1.02-1.02c-0.57,0-1.02,0.46-1.02,1.02c0,0.57,0.45,1.02,1.02,1.02
			C540.3,11.48,540.76,11.03,540.76,10.46"/>
		<path class="st0" d="M549.87,10.46c0-0.56-0.45-1.02-1.02-1.02s-1.02,0.46-1.02,1.02c0,0.57,0.45,1.02,1.02,1.02
			S549.87,11.03,549.87,10.46"/>
		<path class="st0" d="M530.56,1.34c0-0.57-0.45-1.02-1.02-1.02c-0.56,0-1.02,0.45-1.02,1.02c0,0.56,0.46,1.02,1.02,1.02
			C530.1,2.36,530.56,1.91,530.56,1.34"/>
		<path class="st0" d="M540.76,1.34c0-0.57-0.46-1.02-1.02-1.02c-0.57,0-1.02,0.45-1.02,1.02c0,0.56,0.45,1.02,1.02,1.02
			C540.3,2.36,540.76,1.91,540.76,1.34"/>
		<path class="st0" d="M558.99,28.7c0-0.56-0.46-1.02-1.02-1.02c-0.57,0-1.02,0.46-1.02,1.02c0,0.56,0.45,1.02,1.02,1.02
			C558.54,29.72,558.99,29.26,558.99,28.7"/>
		<path class="st0" d="M568.11,28.7c0-0.56-0.46-1.02-1.02-1.02c-0.56,0-1.02,0.46-1.02,1.02c0,0.56,0.46,1.02,1.02,1.02
			C567.65,29.72,568.11,29.26,568.11,28.7"/>
		<path class="st0" d="M577.23,28.7c0-0.56-0.45-1.02-1.02-1.02c-0.56,0-1.02,0.46-1.02,1.02c0,0.56,0.46,1.02,1.02,1.02
			C576.77,29.72,577.23,29.26,577.23,28.7"/>
		<path class="st0" d="M586.35,28.7c0-0.56-0.46-1.02-1.02-1.02c-0.57,0-1.02,0.46-1.02,1.02c0,0.56,0.45,1.02,1.02,1.02
			C585.89,29.72,586.35,29.26,586.35,28.7"/>
		<path class="st0" d="M595.46,28.7c0-0.56-0.45-1.02-1.02-1.02c-0.56,0-1.02,0.46-1.02,1.02c0,0.56,0.46,1.02,1.02,1.02
			C595.01,29.72,595.46,29.26,595.46,28.7"/>
		<path class="st0" d="M604.58,28.7c0-0.56-0.46-1.02-1.02-1.02c-0.57,0-1.02,0.46-1.02,1.02c0,0.56,0.45,1.02,1.02,1.02
			C604.13,29.72,604.58,29.26,604.58,28.7"/>
		<path class="st0" d="M613.7,28.7c0-0.56-0.45-1.02-1.02-1.02s-1.02,0.46-1.02,1.02c0,0.56,0.45,1.02,1.02,1.02
			S613.7,29.26,613.7,28.7"/>
		<path class="st0" d="M622.82,28.7c0-0.56-0.45-1.02-1.02-1.02c-0.56,0-1.02,0.46-1.02,1.02c0,0.56,0.46,1.02,1.02,1.02
			C622.36,29.72,622.82,29.26,622.82,28.7"/>
		<path class="st0" d="M631.94,28.7c0-0.56-0.46-1.02-1.02-1.02c-0.56,0-1.02,0.46-1.02,1.02c0,0.56,0.46,1.02,1.02,1.02
			C631.48,29.72,631.94,29.26,631.94,28.7"/>
		<path class="st0" d="M641.05,28.7c0-0.56-0.45-1.02-1.02-1.02c-0.56,0-1.02,0.46-1.02,1.02c0,0.56,0.46,1.02,1.02,1.02
			C640.6,29.72,641.05,29.26,641.05,28.7"/>
		<path class="st0" d="M650.17,28.7c0-0.56-0.46-1.02-1.02-1.02c-0.57,0-1.02,0.46-1.02,1.02c0,0.56,0.45,1.02,1.02,1.02
			C649.72,29.72,650.17,29.26,650.17,28.7"/>
		<path class="st0" d="M659.29,28.7c0-0.56-0.45-1.02-1.02-1.02s-1.02,0.46-1.02,1.02c0,0.56,0.45,1.02,1.02,1.02
			S659.29,29.26,659.29,28.7"/>
		<path class="st0" d="M668.41,28.7c0-0.56-0.46-1.02-1.02-1.02c-0.57,0-1.02,0.46-1.02,1.02c0,0.56,0.45,1.02,1.02,1.02
			C667.95,29.72,668.41,29.26,668.41,28.7"/>
		<path class="st0" d="M677.53,28.7c0-0.56-0.46-1.02-1.02-1.02c-0.57,0-1.02,0.46-1.02,1.02c0,0.56,0.45,1.02,1.02,1.02
			C677.07,29.72,677.53,29.26,677.53,28.7"/>
		<path class="st0" d="M686.64,28.7c0-0.56-0.45-1.02-1.02-1.02c-0.56,0-1.02,0.46-1.02,1.02c0,0.56,0.46,1.02,1.02,1.02
			C686.19,29.72,686.64,29.26,686.64,28.7"/>
		<path class="st0" d="M695.76,28.7c0-0.56-0.46-1.02-1.02-1.02c-0.57,0-1.02,0.46-1.02,1.02c0,0.56,0.45,1.02,1.02,1.02
			C695.31,29.72,695.76,29.26,695.76,28.7"/>
		<path class="st0" d="M704.88,28.7c0-0.56-0.45-1.02-1.02-1.02s-1.02,0.46-1.02,1.02c0,0.56,0.45,1.02,1.02,1.02
			S704.88,29.26,704.88,28.7"/>
		<path class="st0" d="M714,28.7c0-0.56-0.46-1.02-1.02-1.02c-0.57,0-1.02,0.46-1.02,1.02c0,0.56,0.45,1.02,1.02,1.02
			C713.54,29.72,714,29.26,714,28.7"/>
		<path class="st0" d="M723.12,28.7c0-0.56-0.46-1.02-1.02-1.02c-0.57,0-1.02,0.46-1.02,1.02c0,0.56,0.45,1.02,1.02,1.02
			C722.66,29.72,723.12,29.26,723.12,28.7"/>
		<path class="st0" d="M732.23,28.7c0-0.56-0.45-1.02-1.02-1.02c-0.56,0-1.02,0.46-1.02,1.02c0,0.56,0.46,1.02,1.02,1.02
			C731.78,29.72,732.23,29.26,732.23,28.7"/>
		<path class="st0" d="M741.35,28.7c0-0.56-0.46-1.02-1.02-1.02c-0.56,0-1.02,0.46-1.02,1.02c0,0.56,0.46,1.02,1.02,1.02
			C740.89,29.72,741.35,29.26,741.35,28.7"/>
		<path class="st0" d="M750.47,28.7c0-0.56-0.45-1.02-1.02-1.02s-1.02,0.46-1.02,1.02c0,0.56,0.45,1.02,1.02,1.02
			S750.47,29.26,750.47,28.7"/>
		<path class="st0" d="M759.59,28.7c0-0.56-0.45-1.02-1.02-1.02c-0.56,0-1.02,0.46-1.02,1.02c0,0.56,0.46,1.02,1.02,1.02
			C759.13,29.72,759.59,29.26,759.59,28.7"/>
		<path class="st0" d="M768.71,28.7c0-0.56-0.46-1.02-1.02-1.02c-0.56,0-1.02,0.46-1.02,1.02c0,0.56,0.46,1.02,1.02,1.02
			C768.25,29.72,768.71,29.26,768.71,28.7"/>
		<path class="st0" d="M777.82,28.7c0-0.56-0.45-1.02-1.02-1.02c-0.56,0-1.02,0.46-1.02,1.02c0,0.56,0.46,1.02,1.02,1.02
			C777.37,29.72,777.82,29.26,777.82,28.7"/>
		<path class="st0" d="M786.94,28.7c0-0.56-0.46-1.02-1.02-1.02c-0.57,0-1.02,0.46-1.02,1.02c0,0.56,0.45,1.02,1.02,1.02
			C786.48,29.72,786.94,29.26,786.94,28.7"/>
		<path class="st0" d="M796.06,28.7c0-0.56-0.45-1.02-1.02-1.02c-0.57,0-1.02,0.46-1.02,1.02c0,0.56,0.45,1.02,1.02,1.02
			C795.61,29.72,796.06,29.26,796.06,28.7"/>
		<path class="st0" d="M805.18,28.7c0-0.56-0.45-1.02-1.02-1.02c-0.56,0-1.02,0.46-1.02,1.02c0,0.56,0.46,1.02,1.02,1.02
			C804.72,29.72,805.18,29.26,805.18,28.7"/>
		<path class="st0" d="M814.3,28.7c0-0.56-0.46-1.02-1.02-1.02c-0.57,0-1.02,0.46-1.02,1.02c0,0.56,0.45,1.02,1.02,1.02
			C813.84,29.72,814.3,29.26,814.3,28.7"/>
		<path class="st0" d="M823.41,28.7c0-0.56-0.45-1.02-1.02-1.02c-0.56,0-1.02,0.46-1.02,1.02c0,0.56,0.46,1.02,1.02,1.02
			C822.96,29.72,823.41,29.26,823.41,28.7"/>
		<path class="st0" d="M832.53,28.7c0-0.56-0.46-1.02-1.02-1.02c-0.56,0-1.02,0.46-1.02,1.02c0,0.56,0.46,1.02,1.02,1.02
			C832.07,29.72,832.53,29.26,832.53,28.7"/>
		<path class="st0" d="M841.65,28.7c0-0.56-0.45-1.02-1.02-1.02s-1.02,0.46-1.02,1.02c0,0.56,0.45,1.02,1.02,1.02
			S841.65,29.26,841.65,28.7"/>
		<path class="st0" d="M558.99,19.58c0-0.56-0.46-1.02-1.02-1.02c-0.57,0-1.02,0.46-1.02,1.02c0,0.56,0.45,1.02,1.02,1.02
			C558.54,20.6,558.99,20.14,558.99,19.58"/>
		<path class="st0" d="M568.11,19.58c0-0.56-0.46-1.02-1.02-1.02c-0.56,0-1.02,0.46-1.02,1.02c0,0.56,0.46,1.02,1.02,1.02
			C567.65,20.6,568.11,20.14,568.11,19.58"/>
		<path class="st0" d="M577.23,19.58c0-0.56-0.45-1.02-1.02-1.02c-0.56,0-1.02,0.46-1.02,1.02c0,0.56,0.46,1.02,1.02,1.02
			C576.77,20.6,577.23,20.14,577.23,19.58"/>
		<path class="st0" d="M586.35,19.58c0-0.56-0.46-1.02-1.02-1.02c-0.57,0-1.02,0.46-1.02,1.02c0,0.56,0.45,1.02,1.02,1.02
			C585.89,20.6,586.35,20.14,586.35,19.58"/>
		<path class="st0" d="M595.46,19.58c0-0.56-0.45-1.02-1.02-1.02c-0.56,0-1.02,0.46-1.02,1.02c0,0.56,0.46,1.02,1.02,1.02
			C595.01,20.6,595.46,20.14,595.46,19.58"/>
		<path class="st0" d="M604.58,19.58c0-0.56-0.46-1.02-1.02-1.02c-0.57,0-1.02,0.46-1.02,1.02c0,0.56,0.45,1.02,1.02,1.02
			C604.13,20.6,604.58,20.14,604.58,19.58"/>
		<path class="st0" d="M613.7,19.58c0-0.56-0.45-1.02-1.02-1.02s-1.02,0.46-1.02,1.02c0,0.56,0.45,1.02,1.02,1.02
			S613.7,20.14,613.7,19.58"/>
		<path class="st0" d="M622.82,19.58c0-0.56-0.45-1.02-1.02-1.02c-0.56,0-1.02,0.46-1.02,1.02c0,0.56,0.46,1.02,1.02,1.02
			C622.36,20.6,622.82,20.14,622.82,19.58"/>
		<path class="st0" d="M631.94,19.58c0-0.56-0.46-1.02-1.02-1.02c-0.56,0-1.02,0.46-1.02,1.02c0,0.56,0.46,1.02,1.02,1.02
			C631.48,20.6,631.94,20.14,631.94,19.58"/>
		<path class="st0" d="M650.17,19.58c0-0.56-0.46-1.02-1.02-1.02c-0.57,0-1.02,0.46-1.02,1.02c0,0.56,0.45,1.02,1.02,1.02
			C649.72,20.6,650.17,20.14,650.17,19.58"/>
		<path class="st0" d="M659.29,19.58c0-0.56-0.45-1.02-1.02-1.02s-1.02,0.46-1.02,1.02c0,0.56,0.45,1.02,1.02,1.02
			S659.29,20.14,659.29,19.58"/>
		<path class="st0" d="M668.41,19.58c0-0.56-0.46-1.02-1.02-1.02c-0.57,0-1.02,0.46-1.02,1.02c0,0.56,0.45,1.02,1.02,1.02
			C667.95,20.6,668.41,20.14,668.41,19.58"/>
		<path class="st0" d="M677.53,19.58c0-0.56-0.46-1.02-1.02-1.02c-0.57,0-1.02,0.46-1.02,1.02c0,0.56,0.45,1.02,1.02,1.02
			C677.07,20.6,677.53,20.14,677.53,19.58"/>
		<path class="st0" d="M686.64,19.58c0-0.56-0.45-1.02-1.02-1.02c-0.56,0-1.02,0.46-1.02,1.02c0,0.56,0.46,1.02,1.02,1.02
			C686.19,20.6,686.64,20.14,686.64,19.58"/>
		<path class="st0" d="M695.76,19.58c0-0.56-0.46-1.02-1.02-1.02c-0.57,0-1.02,0.46-1.02,1.02c0,0.56,0.45,1.02,1.02,1.02
			C695.31,20.6,695.76,20.14,695.76,19.58"/>
		<path class="st0" d="M704.88,19.58c0-0.56-0.45-1.02-1.02-1.02s-1.02,0.46-1.02,1.02c0,0.56,0.45,1.02,1.02,1.02
			S704.88,20.14,704.88,19.58"/>
		<path class="st0" d="M714,19.58c0-0.56-0.46-1.02-1.02-1.02c-0.57,0-1.02,0.46-1.02,1.02c0,0.56,0.45,1.02,1.02,1.02
			C713.54,20.6,714,20.14,714,19.58"/>
		<path class="st0" d="M723.12,19.58c0-0.56-0.46-1.02-1.02-1.02c-0.57,0-1.02,0.46-1.02,1.02c0,0.56,0.45,1.02,1.02,1.02
			C722.66,20.6,723.12,20.14,723.12,19.58"/>
		<path class="st0" d="M732.23,19.58c0-0.56-0.45-1.02-1.02-1.02c-0.56,0-1.02,0.46-1.02,1.02c0,0.56,0.46,1.02,1.02,1.02
			C731.78,20.6,732.23,20.14,732.23,19.58"/>
		<path class="st0" d="M741.35,19.58c0-0.56-0.46-1.02-1.02-1.02c-0.56,0-1.02,0.46-1.02,1.02c0,0.56,0.46,1.02,1.02,1.02
			C740.89,20.6,741.35,20.14,741.35,19.58"/>
		<path class="st0" d="M750.47,19.58c0-0.56-0.45-1.02-1.02-1.02s-1.02,0.46-1.02,1.02c0,0.56,0.45,1.02,1.02,1.02
			S750.47,20.14,750.47,19.58"/>
		<path class="st0" d="M759.59,19.58c0-0.56-0.45-1.02-1.02-1.02c-0.56,0-1.02,0.46-1.02,1.02c0,0.56,0.46,1.02,1.02,1.02
			C759.13,20.6,759.59,20.14,759.59,19.58"/>
		<path class="st0" d="M768.71,19.58c0-0.56-0.46-1.02-1.02-1.02c-0.56,0-1.02,0.46-1.02,1.02c0,0.56,0.46,1.02,1.02,1.02
			C768.25,20.6,768.71,20.14,768.71,19.58"/>
		<path class="st0" d="M777.82,19.58c0-0.56-0.45-1.02-1.02-1.02c-0.56,0-1.02,0.46-1.02,1.02c0,0.56,0.46,1.02,1.02,1.02
			C777.37,20.6,777.82,20.14,777.82,19.58"/>
		<path class="st0" d="M786.94,19.58c0-0.56-0.46-1.02-1.02-1.02c-0.57,0-1.02,0.46-1.02,1.02c0,0.56,0.45,1.02,1.02,1.02
			C786.48,20.6,786.94,20.14,786.94,19.58"/>
		<path class="st0" d="M796.06,19.58c0-0.56-0.45-1.02-1.02-1.02c-0.57,0-1.02,0.46-1.02,1.02c0,0.56,0.45,1.02,1.02,1.02
			C795.61,20.6,796.06,20.14,796.06,19.58"/>
		<path class="st0" d="M805.18,19.58c0-0.56-0.45-1.02-1.02-1.02c-0.56,0-1.02,0.46-1.02,1.02c0,0.56,0.46,1.02,1.02,1.02
			C804.72,20.6,805.18,20.14,805.18,19.58"/>
		<path class="st0" d="M814.3,19.58c0-0.56-0.46-1.02-1.02-1.02c-0.57,0-1.02,0.46-1.02,1.02c0,0.56,0.45,1.02,1.02,1.02
			C813.84,20.6,814.3,20.14,814.3,19.58"/>
		<path class="st0" d="M823.41,19.58c0-0.56-0.45-1.02-1.02-1.02c-0.56,0-1.02,0.46-1.02,1.02c0,0.56,0.46,1.02,1.02,1.02
			C822.96,20.6,823.41,20.14,823.41,19.58"/>
		<path class="st0" d="M832.53,19.58c0-0.56-0.46-1.02-1.02-1.02c-0.56,0-1.02,0.46-1.02,1.02c0,0.56,0.46,1.02,1.02,1.02
			C832.07,20.6,832.53,20.14,832.53,19.58"/>
		<path class="st0" d="M841.65,19.58c0-0.56-0.45-1.02-1.02-1.02s-1.02,0.46-1.02,1.02c0,0.56,0.45,1.02,1.02,1.02
			S841.65,20.14,841.65,19.58"/>
		<path class="st0" d="M568.11,10.46c0-0.56-0.46-1.02-1.02-1.02c-0.56,0-1.02,0.46-1.02,1.02c0,0.57,0.46,1.02,1.02,1.02
			C567.65,11.48,568.11,11.03,568.11,10.46"/>
		<path class="st0" d="M577.23,10.46c0-0.56-0.45-1.02-1.02-1.02c-0.56,0-1.02,0.46-1.02,1.02c0,0.57,0.46,1.02,1.02,1.02
			C576.77,11.48,577.23,11.03,577.23,10.46"/>
		<path class="st0" d="M586.35,10.46c0-0.56-0.46-1.02-1.02-1.02c-0.57,0-1.02,0.46-1.02,1.02c0,0.57,0.45,1.02,1.02,1.02
			C585.89,11.48,586.35,11.03,586.35,10.46"/>
		<path class="st0" d="M595.46,10.46c0-0.56-0.45-1.02-1.02-1.02c-0.56,0-1.02,0.46-1.02,1.02c0,0.57,0.46,1.02,1.02,1.02
			C595.01,11.48,595.46,11.03,595.46,10.46"/>
		<path class="st0" d="M604.58,10.46c0-0.56-0.46-1.02-1.02-1.02c-0.57,0-1.02,0.46-1.02,1.02c0,0.57,0.45,1.02,1.02,1.02
			C604.13,11.48,604.58,11.03,604.58,10.46"/>
		<path class="st0" d="M613.7,10.46c0-0.56-0.45-1.02-1.02-1.02s-1.02,0.46-1.02,1.02c0,0.57,0.45,1.02,1.02,1.02
			S613.7,11.03,613.7,10.46"/>
		<path class="st0" d="M622.82,10.46c0-0.56-0.45-1.02-1.02-1.02c-0.56,0-1.02,0.46-1.02,1.02c0,0.57,0.46,1.02,1.02,1.02
			C622.36,11.48,622.82,11.03,622.82,10.46"/>
		<path class="st0" d="M631.94,10.46c0-0.56-0.46-1.02-1.02-1.02c-0.56,0-1.02,0.46-1.02,1.02c0,0.57,0.46,1.02,1.02,1.02
			C631.48,11.48,631.94,11.03,631.94,10.46"/>
		<path class="st0" d="M650.17,10.46c0-0.56-0.46-1.02-1.02-1.02c-0.57,0-1.02,0.46-1.02,1.02c0,0.57,0.45,1.02,1.02,1.02
			C649.72,11.48,650.17,11.03,650.17,10.46"/>
		<path class="st0" d="M659.29,10.46c0-0.56-0.45-1.02-1.02-1.02s-1.02,0.46-1.02,1.02c0,0.57,0.45,1.02,1.02,1.02
			S659.29,11.03,659.29,10.46"/>
		<path class="st0" d="M668.41,10.46c0-0.56-0.46-1.02-1.02-1.02c-0.57,0-1.02,0.46-1.02,1.02c0,0.57,0.45,1.02,1.02,1.02
			C667.95,11.48,668.41,11.03,668.41,10.46"/>
		<path class="st0" d="M677.53,10.46c0-0.56-0.46-1.02-1.02-1.02c-0.57,0-1.02,0.46-1.02,1.02c0,0.57,0.45,1.02,1.02,1.02
			C677.07,11.48,677.53,11.03,677.53,10.46"/>
		<path class="st0" d="M686.64,10.46c0-0.56-0.45-1.02-1.02-1.02c-0.56,0-1.02,0.46-1.02,1.02c0,0.57,0.46,1.02,1.02,1.02
			C686.19,11.48,686.64,11.03,686.64,10.46"/>
		<path class="st0" d="M695.76,10.46c0-0.56-0.46-1.02-1.02-1.02c-0.57,0-1.02,0.46-1.02,1.02c0,0.57,0.45,1.02,1.02,1.02
			C695.31,11.48,695.76,11.03,695.76,10.46"/>
		<path class="st0" d="M704.88,10.46c0-0.56-0.45-1.02-1.02-1.02s-1.02,0.46-1.02,1.02c0,0.57,0.45,1.02,1.02,1.02
			S704.88,11.03,704.88,10.46"/>
		<path class="st0" d="M714,10.46c0-0.56-0.46-1.02-1.02-1.02c-0.57,0-1.02,0.46-1.02,1.02c0,0.57,0.45,1.02,1.02,1.02
			C713.54,11.48,714,11.03,714,10.46"/>
		<path class="st0" d="M732.23,10.46c0-0.56-0.45-1.02-1.02-1.02c-0.56,0-1.02,0.46-1.02,1.02c0,0.57,0.46,1.02,1.02,1.02
			C731.78,11.48,732.23,11.03,732.23,10.46"/>
		<path class="st0" d="M741.35,10.46c0-0.56-0.46-1.02-1.02-1.02c-0.56,0-1.02,0.46-1.02,1.02c0,0.57,0.46,1.02,1.02,1.02
			C740.89,11.48,741.35,11.03,741.35,10.46"/>
		<path class="st0" d="M750.47,10.46c0-0.56-0.45-1.02-1.02-1.02s-1.02,0.46-1.02,1.02c0,0.57,0.45,1.02,1.02,1.02
			S750.47,11.03,750.47,10.46"/>
		<path class="st0" d="M759.59,10.46c0-0.56-0.45-1.02-1.02-1.02c-0.56,0-1.02,0.46-1.02,1.02c0,0.57,0.46,1.02,1.02,1.02
			C759.13,11.48,759.59,11.03,759.59,10.46"/>
		<path class="st0" d="M777.82,10.46c0-0.56-0.45-1.02-1.02-1.02c-0.56,0-1.02,0.46-1.02,1.02c0,0.57,0.46,1.02,1.02,1.02
			C777.37,11.48,777.82,11.03,777.82,10.46"/>
		<path class="st0" d="M786.94,10.46c0-0.56-0.46-1.02-1.02-1.02c-0.57,0-1.02,0.46-1.02,1.02c0,0.57,0.45,1.02,1.02,1.02
			C786.48,11.48,786.94,11.03,786.94,10.46"/>
		<path class="st0" d="M796.06,10.46c0-0.56-0.45-1.02-1.02-1.02c-0.57,0-1.02,0.46-1.02,1.02c0,0.57,0.45,1.02,1.02,1.02
			C795.61,11.48,796.06,11.03,796.06,10.46"/>
		<path class="st0" d="M805.18,10.46c0-0.56-0.45-1.02-1.02-1.02c-0.56,0-1.02,0.46-1.02,1.02c0,0.57,0.46,1.02,1.02,1.02
			C804.72,11.48,805.18,11.03,805.18,10.46"/>
		<path class="st0" d="M814.3,10.46c0-0.56-0.46-1.02-1.02-1.02c-0.57,0-1.02,0.46-1.02,1.02c0,0.57,0.45,1.02,1.02,1.02
			C813.84,11.48,814.3,11.03,814.3,10.46"/>
		<path class="st0" d="M823.41,10.46c0-0.56-0.45-1.02-1.02-1.02c-0.56,0-1.02,0.46-1.02,1.02c0,0.57,0.46,1.02,1.02,1.02
			C822.96,11.48,823.41,11.03,823.41,10.46"/>
		<path class="st0" d="M841.65,10.46c0-0.56-0.45-1.02-1.02-1.02s-1.02,0.46-1.02,1.02c0,0.57,0.45,1.02,1.02,1.02
			S841.65,11.03,841.65,10.46"/>
		<path class="st0" d="M568.11,1.34c0-0.57-0.46-1.02-1.02-1.02c-0.56,0-1.02,0.45-1.02,1.02c0,0.56,0.46,1.02,1.02,1.02
			C567.65,2.36,568.11,1.91,568.11,1.34"/>
		<path class="st0" d="M586.35,1.34c0-0.57-0.46-1.02-1.02-1.02c-0.57,0-1.02,0.45-1.02,1.02c0,0.56,0.45,1.02,1.02,1.02
			C585.89,2.36,586.35,1.91,586.35,1.34"/>
		<path class="st0" d="M622.82,1.34c0-0.57-0.45-1.02-1.02-1.02c-0.56,0-1.02,0.45-1.02,1.02c0,0.56,0.46,1.02,1.02,1.02
			C622.36,2.36,622.82,1.91,622.82,1.34"/>
		<path class="st0" d="M650.17,1.34c0-0.57-0.46-1.02-1.02-1.02c-0.57,0-1.02,0.45-1.02,1.02c0,0.56,0.45,1.02,1.02,1.02
			C649.72,2.36,650.17,1.91,650.17,1.34"/>
		<path class="st0" d="M677.53,1.34c0-0.57-0.46-1.02-1.02-1.02c-0.57,0-1.02,0.45-1.02,1.02c0,0.56,0.45,1.02,1.02,1.02
			C677.07,2.36,677.53,1.91,677.53,1.34"/>
		<path class="st0" d="M695.76,1.34c0-0.57-0.46-1.02-1.02-1.02c-0.57,0-1.02,0.45-1.02,1.02c0,0.56,0.45,1.02,1.02,1.02
			C695.31,2.36,695.76,1.91,695.76,1.34"/>
		<path class="st0" d="M704.88,1.34c0-0.57-0.45-1.02-1.02-1.02s-1.02,0.45-1.02,1.02c0,0.56,0.45,1.02,1.02,1.02
			S704.88,1.91,704.88,1.34"/>
		<path class="st0" d="M714,1.34c0-0.57-0.46-1.02-1.02-1.02c-0.57,0-1.02,0.45-1.02,1.02c0,0.56,0.45,1.02,1.02,1.02
			C713.54,2.36,714,1.91,714,1.34"/>
		<path class="st0" d="M732.23,1.34c0-0.57-0.45-1.02-1.02-1.02c-0.56,0-1.02,0.45-1.02,1.02c0,0.56,0.46,1.02,1.02,1.02
			C731.78,2.36,732.23,1.91,732.23,1.34"/>
		<path class="st0" d="M750.47,1.34c0-0.57-0.45-1.02-1.02-1.02s-1.02,0.45-1.02,1.02c0,0.56,0.45,1.02,1.02,1.02
			S750.47,1.91,750.47,1.34"/>
		<path class="st0" d="M777.82,1.34c0-0.57-0.45-1.02-1.02-1.02c-0.56,0-1.02,0.45-1.02,1.02c0,0.56,0.46,1.02,1.02,1.02
			C777.37,2.36,777.82,1.91,777.82,1.34"/>
		<path class="st0" d="M796.06,1.34c0-0.57-0.45-1.02-1.02-1.02c-0.57,0-1.02,0.45-1.02,1.02c0,0.56,0.45,1.02,1.02,1.02
			C795.61,2.36,796.06,1.91,796.06,1.34"/>
		<path class="st0" d="M805.18,1.34c0-0.57-0.45-1.02-1.02-1.02c-0.56,0-1.02,0.45-1.02,1.02c0,0.56,0.46,1.02,1.02,1.02
			C804.72,2.36,805.18,1.91,805.18,1.34"/>
		<path class="st0" d="M814.3,1.34c0-0.57-0.46-1.02-1.02-1.02c-0.57,0-1.02,0.45-1.02,1.02c0,0.56,0.45,1.02,1.02,1.02
			C813.84,2.36,814.3,1.91,814.3,1.34"/>
		<path class="st0" d="M841.65,1.34c0-0.57-0.45-1.02-1.02-1.02s-1.02,0.45-1.02,1.02c0,0.56,0.45,1.02,1.02,1.02
			S841.65,1.91,841.65,1.34"/>
	</g>
</g>
</svg>
