<?xml version="1.0" encoding="utf-8"?>
<!-- Generator: Adobe Illustrator 26.5.0, SVG Export Plug-In . SVG Version: 6.00 Build 0)  -->
<svg version="1.0" id="Capa_1" xmlns="http://www.w3.org/2000/svg" xmlns:xlink="http://www.w3.org/1999/xlink" x="0px" y="0px"
	 viewBox="0 0 69 18" enable-background="new 0 0 69 18" xml:space="preserve">
<g>
	<defs>
		<rect id="SVGID_1_" x="0.3" y="0.2" width="68" height="17.5"/>
	</defs>
	<clipPath id="SVGID_00000177466442542052288020000000020966624847542710_">
		<use xlink:href="#SVGID_1_"  overflow="visible"/>
	</clipPath>
	<path clip-path="url(#SVGID_00000177466442542052288020000000020966624847542710_)" fill="#151515" d="M21.8,13.9
		c0,0.4-0.2,0.5-0.6,0.7c-0.5,0.1-1,0.2-1.7,0.2c-1.6,0-3.1-0.9-3.1-3.4s1.5-3.4,3.1-3.4c0.7,0,1.1,0.1,1.7,0.2
		c0.4,0.1,0.6,0.3,0.6,0.7V13.9z M24.4,5.8c-1.6-0.6-3.2-0.9-4.9-0.9c-3.7,0-6.3,2.5-6.3,6.4c0,4,2.3,6.4,6.3,6.4
		c1.6,0,3.2-0.3,4.9-1c0.4-0.2,0.6-0.4,0.6-1V6.8C25,6.2,24.8,6,24.4,5.8"/>
	<path clip-path="url(#SVGID_00000177466442542052288020000000020966624847542710_)" fill="#151515" d="M3.7,9
		c0-0.8,0.8-1.2,2.1-1.2c1.3,0,2.5,0.4,3.7,1.1L9.8,9c0.2,0,0.4-0.1,0.5-0.3L11.1,7l0.1-0.4c0-0.2-0.1-0.4-0.3-0.5
		C9.4,5.2,7.6,4.8,5.9,4.8c-3.3,0-5.4,1.8-5.4,4.4c0,5.2,7.9,3.2,7.9,6.8c0,0.4,0,0.6-0.1,0.9l0,0.1c0,0.2,0.1,0.3,0.4,0.3h2.2
		c0.4,0,0.5-0.1,0.6-0.5c0.1-0.4,0.2-1,0.2-1.4C11.6,10,3.7,11.3,3.7,9"/>
	<path clip-path="url(#SVGID_00000177466442542052288020000000020966624847542710_)" fill="#151515" d="M33.6,4.9
		c-1.5,0-3.2,0.2-4.9,0.9c-0.3,0.1-0.6,0.4-0.6,1V17c0,0.3,0.2,0.5,0.5,0.5h2.2c0.3,0,0.5-0.2,0.5-0.5V8.7c0-0.4,0.2-0.5,0.6-0.6
		c0.6-0.1,1.1-0.2,1.8-0.2C35,7.9,36,8.5,36,10v7c0,0.3,0.2,0.5,0.5,0.5h2.2c0.3,0,0.5-0.2,0.5-0.5V9.5C39.2,6.5,37.4,4.9,33.6,4.9"
		/>
	<path clip-path="url(#SVGID_00000177466442542052288020000000020966624847542710_)" fill="#151515" d="M47.9,14.8
		c-1.8,0-3-1.2-3-3.4s1.2-3.4,2.9-3.4c1.8,0,3,1.2,3,3.4S49.5,14.8,47.9,14.8 M47.7,4.9c-3.7,0-6.1,2.7-6.1,6.4
		c0,3.7,2.4,6.4,6.3,6.4c3.7,0,6.1-2.7,6.1-6.4C54,7.6,51.6,4.9,47.7,4.9"/>
	<path clip-path="url(#SVGID_00000177466442542052288020000000020966624847542710_)" fill="#151515" d="M67.7,5.2h-2.2
		c-0.3,0-0.5,0.2-0.5,0.5V17c0,0.3,0.2,0.5,0.5,0.5h2.2c0.3,0,0.5-0.2,0.5-0.5V5.7C68.2,5.4,68,5.2,67.7,5.2"/>
	<path clip-path="url(#SVGID_00000177466442542052288020000000020966624847542710_)" fill="#151515" d="M63,0.4
		c-0.5-0.1-1-0.2-1.6-0.2c-3.1,0-5,1.6-5,5.2V17c0,0.3,0.2,0.5,0.5,0.5h2.2c0.3,0,0.5-0.2,0.5-0.5V7.9h3.1c0.3,0,0.5-0.2,0.5-0.5
		V5.7c0-0.3-0.2-0.5-0.5-0.5h-3.1V4.9c0-1.4,0.6-2,1.9-2c0.5,0,1,0.1,1.2,0.1c0.3,0,0.4-0.2,0.5-0.5l0.2-1.3l0-0.3
		C63.5,0.6,63.3,0.5,63,0.4"/>
	<path clip-path="url(#SVGID_00000177466442542052288020000000020966624847542710_)" fill="#634292" d="M1.9,14.3
		c-1,0-1.7,0.6-1.7,1.7c0,1,0.7,1.7,1.7,1.7c1,0,1.7-0.7,1.7-1.7C3.7,15,3,14.3,1.9,14.3"/>
	<path clip-path="url(#SVGID_00000177466442542052288020000000020966624847542710_)" fill="#634292" d="M66.6,0.2
		c-1,0-1.7,0.6-1.7,1.7c0,1,0.7,1.7,1.7,1.7c1,0,1.7-0.7,1.7-1.7C68.3,0.9,67.6,0.2,66.6,0.2"/>
</g>
</svg>
